<svg height="512pt" viewBox="0 -117 512 512" width="512pt" xmlns="http://www.w3.org/2000/svg"><path d="m476.734375 234.5h-442.46875v-24.96875c0-11.652344 9.449219-21.097656 21.097656-21.097656h400.273438c11.652343 0 21.097656 9.445312 21.097656 21.097656zm0 0" fill="#ffab00"/><path d="m438 234.5h-364v-80.878906c0-71.3125 57.808594-129.121094 129.121094-129.121094h105.757812c71.3125 0 129.121094 57.808594 129.121094 129.121094zm0 0" fill="#ffd740"/><path d="m308.878906 24.5h-30c71.3125 0 129.121094 57.808594 129.121094 129.121094v80.878906h30v-80.878906c0-71.3125-57.808594-129.121094-129.121094-129.121094zm0 0" fill="#ffc400"/><path d="m381.667969 234.5h-251.335938v-61.019531c0-10.484375 8.5-18.980469 18.980469-18.980469h213.371094c10.484375 0 18.980468 8.496094 18.980468 18.980469v61.019531zm0 0" fill="#ffc400"/><path d="m362.683594 154.5h-30c10.484375 0 18.980468 8.496094 18.980468 18.980469v61.019531h30v-61.019531c.003907-10.484375-8.496093-18.980469-18.980468-18.980469zm0 0" fill="#ffab00"/><path d="m486.5 270.5h-461c-9.941406 0-18-8.058594-18-18s8.058594-18 18-18h461c9.941406 0 18 8.058594 18 18s-8.058594 18-18 18zm0 0" fill="#ffd740"/><path d="m486.5 234.5h-30c9.941406 0 18 8.058594 18 18s-8.058594 18-18 18h30c9.941406 0 18-8.058594 18-18s-8.058594-18-18-18zm0 0" fill="#ffc400"/><path d="m310 154.5h-108v-138.855469c0-4.5 3.644531-8.144531 8.144531-8.144531h91.710938c4.5 0 8.144531 3.644531 8.144531 8.144531zm0 0" fill="#ffab00"/><path d="m301.855469 7.5h-30c4.5 0 8.144531 3.644531 8.144531 8.144531v138.855469h30v-138.855469c0-4.5-3.644531-8.144531-8.144531-8.144531zm0 0" fill="#ff9800"/><path d="m283 154c0 14.910156-12.089844 27-27 27s-27-12.089844-27-27 12.089844-27 27-27 27 12.089844 27 27zm0 0" fill="#b5fcff"/><path d="m256 127c-5.550781 0-10.710938 1.675781-15 4.550781 7.234375 4.84375 12 13.089844 12 22.449219s-4.765625 17.605469-12 22.449219c4.289062 2.871093 9.449219 4.550781 15 4.550781 14.910156 0 27-12.089844 27-27s-12.089844-27-27-27zm0 0" fill="#71f6fc"/><path d="m486.5 227h-2.269531v-17.46875c0-15.769531-12.828125-28.601562-28.589844-28.601562h-10.140625v-27.308594c0-36.289063-14.074219-70.457032-39.628906-96.214844-23.785156-23.976562-54.929688-38.0625-88.371094-40.136719v-1.628906c0-8.625-7.015625-15.640625-15.640625-15.640625h-91.71875c-8.625 0-15.640625 7.015625-15.640625 15.640625v1.628906c-26.292969 1.628907-51.226562 10.691407-72.511719 26.421875-3.332031 2.460938-4.035156 7.160156-1.574219 10.488282 1.472657 1.992187 3.738282 3.042968 6.039063 3.042968 1.546875 0 3.109375-.476562 4.449219-1.46875 18.691406-13.8125 40.539062-21.847656 63.597656-23.449218v114.695312h-45.191406c-14.597656 0-26.476563 11.878906-26.476563 26.480469v53.519531h-41.332031v-73.378906c0-28.082032 9.796875-55.46875 27.578125-77.125 2.628906-3.203125 2.164063-7.929688-1.035156-10.558594-3.199219-2.625-7.925781-2.164062-10.554688 1.039062-19.984375 24.332032-30.988281 55.101563-30.988281 86.644532v27.308594h-11.140625c-15.765625 0-28.589844 12.832031-28.589844 28.601562v17.46875h-1.269531c-14.0625 0-25.5 11.4375-25.5 25.5s11.4375 25.5 25.5 25.5h134.75c4.144531 0 7.5-3.359375 7.5-7.5s-3.355469-7.5-7.5-7.5h-134.75c-5.789062 0-10.5-4.710938-10.5-10.5s4.710938-10.5 10.5-10.5h461c5.789062 0 10.5 4.710938 10.5 10.5s-4.710938 10.5-10.5 10.5h-294.5c-4.144531 0-7.5 3.359375-7.5 7.5s3.355469 7.5 7.5 7.5h294.5c14.0625 0 25.5-11.4375 25.5-25.5s-11.4375-25.5-25.5-25.5zm-444.730469-17.46875c0-7.5 6.097657-13.601562 13.589844-13.601562h11.140625v31.070312h-24.730469zm167.730469-193.890625c0-.347656.292969-.640625.640625-.640625h91.71875c.347656 0 .640625.292969.640625.640625v131.359375h-12.714844c-3.242187-15.679688-17.15625-27.5-33.785156-27.5-16.625 0-30.539062 11.820312-33.785156 27.5h-12.714844zm27 138.496094c0-.046875 0-.089844 0-.136719 0-10.753906 8.746094-19.5 19.5-19.5s19.5 8.746094 19.5 19.5v.136719c-.007812.121093-.011719.242187-.011719.363281 0 .027344.003907.050781.003907.078125-.308594 10.484375-8.933594 18.921875-19.492188 18.921875s-19.183594-8.4375-19.492188-18.921875c0-.027344.003907-.050781.003907-.078125 0-.121094-.003907-.242188-.011719-.363281zm152.671875 72.863281v-3.832031c0-4.144531-3.359375-7.5-7.5-7.5-4.144531 0-7.5 3.355469-7.5 7.5v3.832031h-236.34375v-53.519531c0-6.332031 5.152344-11.480469 11.480469-11.480469h73.128906c3.617188 15.179688 17.292969 26.5 33.5625 26.5s29.945312-11.320312 33.5625-26.5h73.125c6.332031 0 11.480469 5.148438 11.480469 11.480469v17.355469c0 4.140624 3.355469 7.5 7.5 7.5s7.5-3.359376 7.5-7.5v-17.355469c0-14.601563-11.878907-26.480469-26.480469-26.480469h-45.1875v-114.695312c29.410156 2.046874 56.773438 14.550781 77.722656 35.664062 22.75 22.929688 35.277344 53.347656 35.277344 85.652344v73.378906zm56.328125 0v-31.070312h10.140625c7.492187 0 13.589844 6.101562 13.589844 13.601562v17.46875zm0 0"/></svg>